<svg width="85" height="102" viewBox="0 0 85 102" fill="none" xmlns="http://www.w3.org/2000/svg">
<path d="M83.6613 77.479L48.688 3.20803C47.8027 1.34589 45.9677 0.119016 43.9086 0.0124602C41.8447 -0.125822 39.8752 0.895177 38.7987 2.66145L0.866266 64.0993C-0.311329 65.9932 -0.286553 68.3975 0.929822 70.2667L19.4753 98.9862C20.9163 101.2 23.642 102.203 26.1741 101.45L79.9929 85.5302C81.6324 85.0508 82.9836 83.8842 83.6969 82.3321C84.4005 80.7874 84.3884 79.0114 83.6638 77.4764L83.6613 77.479ZM75.8312 80.6644L30.1628 94.1686C28.7697 94.583 27.4325 93.3755 27.7223 91.9696L44.0382 13.8447C44.3433 12.3829 46.3618 12.1516 46.9999 13.504L77.204 77.6442C77.4743 78.2227 77.4776 78.8905 77.213 79.4715C76.9483 80.0526 76.4425 80.4885 75.8287 80.6644H75.8312Z" fill="black"/>
</svg>
