<svg xmlns="http://www.w3.org/2000/svg" width="452" height="512" fill="none" viewBox="0 0 452 512"><path fill="#0071bc" fill-rule="evenodd" d="M41.0864 460.816L0 0H451.474L410.344 460.741L225.464 512L41.0864 460.816Z" clip-rule="evenodd"/><path fill="#29abe2" fill-rule="evenodd" d="M226.116 472.795L375.323 431.748L410.282 38.3764H226.116V472.795Z" clip-rule="evenodd"/><path fill="#b3b3b3" fill-rule="evenodd" d="M94.0466 207.678L98.9959 264.112L226.116 207.678V151.152L94.0466 207.678Z" clip-rule="evenodd"/><path fill="#e6e6e6" fill-rule="evenodd" d="M366.906 90.814 226.116 151.152V207.678L362.052 147.248 366.906 90.814ZM226.116 355.337 225.679 355.403 162.637 338.472 158.518 293.458H101.78L109.698 382.139 225.667 414.249 226.116 414.143V355.337Z" clip-rule="evenodd"/><path fill="#fff" fill-rule="evenodd" d="M226.116 207.678V264.112H295.138L288.864 337.896L226.116 355.386V414.187L341.701 382.077L356.921 207.678H226.116Z" clip-rule="evenodd"/><path fill="#e6e6e6" fill-rule="evenodd" d="M226.116 207.678H94.047L98.996 264.112H226.116V207.678ZM226.116 147.248V90.814H225.543 84.013L89.021 147.248H226.116Z" clip-rule="evenodd"/><path fill="#fff" fill-rule="evenodd" d="M226.116 90.8141V146.541V147.248H362.052L366.906 90.8141H226.116Z" clip-rule="evenodd"/></svg>