<svg xmlns="http://www.w3.org/2000/svg" width="452" height="512" fill="none" viewBox="0 0 452 512"><path fill="#e44d26" fill-rule="evenodd" d="M41.0852 460.819L0 0H451.456L410.327 460.746L225.451 512L41.0852 460.819Z" clip-rule="evenodd"/><path fill="#f16529" fill-rule="evenodd" d="M225.728 472.824L375.116 431.408L410.263 37.6788H225.728V472.824Z" clip-rule="evenodd"/><path fill="#ebebeb" d="M150.94 208.59H225.728V265.107H99.253L84.009 94.197H225.728V150.715H145.775L150.94 208.59ZM225.48 355.438 225.728 355.372V414.174L225.468 414.246 109.696 382.107 101.778 293.366H158.513L162.536 338.442 225.48 355.438Z"/><path fill="#fff" d="M225.532 94.197H367.11L362.049 150.715H225.532V94.197ZM225.532 265.107V208.59H356.907L355.528 223.766 341.396 382.107 225.532 414.219V355.419L288.567 338.406 295.128 265.107H225.532Z"/></svg>