<svg width="512" height="512" viewBox="0 0 512 512" fill="none" xmlns="http://www.w3.org/2000/svg">
<path d="M10 0H306.952C312.475 0 316.952 4.47715 316.952 10V14.381C316.952 19.9038 312.475 24.381 306.952 24.381H10C4.47715 24.381 0 19.9038 0 14.381V10C0 4.47715 4.47715 0 10 0Z" fill="#7A57DB"/>
<path d="M380.095 48.7619H131.905C126.382 48.7619 121.905 53.2391 121.905 58.7619V63.1429C121.905 68.6657 126.382 73.1429 131.905 73.1429H380.095C385.618 73.1429 390.095 68.6657 390.095 63.1429V58.7619C390.095 53.2391 385.618 48.7619 380.095 48.7619Z" fill="#7A57DB"/>
<path d="M375.714 97.5238C370.191 97.5238 365.714 102.001 365.714 107.524V111.905C365.714 117.428 370.191 121.905 375.714 121.905H404.476C409.999 121.905 414.476 117.428 414.476 111.905V107.524C414.476 102.001 409.999 97.5238 404.476 97.5238H375.714Z" fill="#7A57DB"/>
<path d="M10 487.619C4.47715 487.619 0 492.096 0 497.619V502C0 507.523 4.47715 512 10 512H136.286C141.809 512 146.286 507.523 146.286 502V497.619C146.286 492.096 141.809 487.619 136.286 487.619H10Z" fill="#7A57DB"/>
<path d="M292.571 302.571C292.571 297.049 297.049 292.571 302.571 292.571H380.095C385.618 292.571 390.095 297.049 390.095 302.571V306.952C390.095 312.475 385.618 316.952 380.095 316.952H302.571C297.049 316.952 292.571 312.475 292.571 306.952V302.571Z" fill="#7A57DB"/>
<path d="M258.19 292.571H156.286C150.763 292.571 146.286 297.049 146.286 302.571V306.952C146.286 312.475 150.763 316.952 156.286 316.952H258.19C263.713 316.952 268.19 312.475 268.19 306.952V302.571C268.19 297.049 263.713 292.571 258.19 292.571Z" fill="#7A57DB"/>
<path d="M10 292.571H111.905C117.428 292.571 121.905 297.049 121.905 302.571V306.952C121.905 312.475 117.428 316.952 111.905 316.952H10C4.47715 316.952 0 312.475 0 306.952V302.571C0 297.049 4.47715 292.571 10 292.571Z" fill="#7A57DB"/>
<path d="M136.286 390.095H10C4.47715 390.095 0 394.572 0 400.095V404.476C0 409.999 4.47715 414.476 10 414.476H136.286C141.809 414.476 146.286 409.999 146.286 404.476V400.095C146.286 394.572 141.809 390.095 136.286 390.095Z" fill="#7A57DB"/>
<path d="M10 195.048H136.286C141.809 195.048 146.286 199.525 146.286 205.048V209.429C146.286 214.951 141.809 219.429 136.286 219.429H10C4.47715 219.429 0 214.951 0 209.429V205.048C0 199.525 4.47715 195.048 10 195.048Z" fill="#7A57DB"/>
<path d="M10 48.7619H87.5238C93.0467 48.7619 97.5238 53.2391 97.5238 58.7619V63.1429C97.5238 68.6657 93.0467 73.1429 87.5238 73.1429H10C4.47715 73.1429 0 68.6657 0 63.1429V58.7619C0 53.2391 4.47715 48.7619 10 48.7619Z" fill="#7A57DB"/>
<path d="M136.286 438.857H107.524C102.001 438.857 97.5238 443.334 97.5238 448.857V453.238C97.5238 458.761 102.001 463.238 107.524 463.238H136.286C141.809 463.238 146.286 458.761 146.286 453.238V448.857C146.286 443.334 141.809 438.857 136.286 438.857Z" fill="#7A57DB"/>
<path d="M107.524 146.286H136.286C141.809 146.286 146.286 150.763 146.286 156.286V160.667C146.286 166.19 141.809 170.667 136.286 170.667H107.524C102.001 170.667 97.5238 166.19 97.5238 160.667V156.286C97.5238 150.763 102.001 146.286 107.524 146.286Z" fill="#7A57DB"/>
<path d="M63.1429 438.857H10C4.47715 438.857 0 443.334 0 448.857V453.238C0 458.761 4.47715 463.238 10 463.238H63.1429C68.6657 463.238 73.1429 458.761 73.1429 453.238V448.857C73.1429 443.334 68.6657 438.857 63.1429 438.857Z" fill="#7A57DB"/>
<path d="M10 146.286H63.1429C68.6657 146.286 73.1429 150.763 73.1429 156.286V160.667C73.1429 166.19 68.6657 170.667 63.1429 170.667H10C4.47715 170.667 0 166.19 0 160.667V156.286C0 150.763 4.47715 146.286 10 146.286Z" fill="#7A57DB"/>
<path d="M404.476 243.81H205.048C199.525 243.81 195.048 248.287 195.048 253.81V258.19C195.048 263.713 199.525 268.19 205.048 268.19H404.476C409.999 268.19 414.476 263.713 414.476 258.19V253.81C414.476 248.287 409.999 243.81 404.476 243.81Z" fill="#7A57DB"/>
<path d="M83.1429 243.81H160.667C166.19 243.81 170.667 248.287 170.667 253.81V258.19C170.667 263.713 166.19 268.19 160.667 268.19H83.1429C77.62 268.19 73.1429 263.713 73.1429 258.19V253.81C73.1429 248.287 77.62 243.81 83.1429 243.81Z" fill="#7A57DB"/>
<path d="M38.7619 243.81H10C4.47715 243.81 0 248.287 0 253.81V258.19C0 263.713 4.47715 268.19 10 268.19H38.7619C44.2848 268.19 48.7619 263.713 48.7619 258.19V253.81C48.7619 248.287 44.2848 243.81 38.7619 243.81Z" fill="#7A57DB"/>
<path d="M229.429 97.5238H331.333C336.856 97.5238 341.333 102.001 341.333 107.524V111.905C341.333 117.428 336.856 121.905 331.333 121.905H229.429C223.906 121.905 219.429 117.428 219.429 111.905V107.524C219.429 102.001 223.906 97.5238 229.429 97.5238Z" fill="#7A57DB"/>
<path d="M185.048 97.5238H10C4.47715 97.5238 0 102.001 0 107.524V111.905C0 117.428 4.47715 121.905 10 121.905H185.048C190.57 121.905 195.048 117.428 195.048 111.905V107.524C195.048 102.001 190.57 97.5238 185.048 97.5238Z" fill="#7A57DB"/>
<path d="M83.1429 341.333H306.952C312.475 341.333 316.952 345.81 316.952 351.333V355.714C316.952 361.237 312.475 365.714 306.952 365.714H83.1429C77.62 365.714 73.1429 361.237 73.1429 355.714V351.333C73.1429 345.81 77.62 341.333 83.1429 341.333Z" fill="#7A57DB"/>
<path d="M38.7619 341.333H10C4.47715 341.333 0 345.81 0 351.333V355.714C0 361.237 4.47715 365.714 10 365.714H38.7619C44.2848 365.714 48.7619 361.237 48.7619 355.714V351.333C48.7619 345.81 44.2848 341.333 38.7619 341.333Z" fill="#7A57DB"/>
<path d="M302.571 146.286H428.857C434.38 146.286 438.857 150.763 438.857 156.286V160.667C438.857 166.19 434.38 170.667 428.857 170.667H302.571C297.049 170.667 292.571 166.19 292.571 160.667V156.286C292.571 150.763 297.049 146.286 302.571 146.286Z" fill="#7A57DB"/>
<path d="M428.857 195.048H302.571C297.049 195.048 292.571 199.525 292.571 205.048V209.429C292.571 214.951 297.049 219.429 302.571 219.429H428.857C434.38 219.429 438.857 214.951 438.857 209.429V205.048C438.857 199.525 434.38 195.048 428.857 195.048Z" fill="#7A57DB"/>
</svg>
