<svg xmlns="http://www.w3.org/2000/svg" width="512" height="512" fill="none" viewBox="0 0 512 512"><path fill="#09090b" fill-rule="evenodd" d="M427.314 244.686C433.562 250.935 433.562 261.065 427.314 267.314L267.314 427.314C261.065 433.562 250.935 433.562 244.686 427.314 238.438 421.065 238.438 410.935 244.686 404.686L404.686 244.686C410.935 238.438 421.065 238.438 427.314 244.686ZM395.314 68.686C401.562 74.935 401.562 85.065 395.314 91.314L91.314 395.314C85.065 401.562 74.935 401.562 68.686 395.314 62.438 389.065 62.438 378.935 68.686 372.686L372.686 68.686C378.935 62.438 389.065 62.438 395.314 68.686Z" clip-rule="evenodd"/></svg>