<svg role="img" viewBox="0 0 24 24" xmlns="http://www.w3.org/2000/svg" id="Stylelint--Streamline-Simple-Icons" height="24" width="24">
  <desc>
    Stylelint Streamline Icon: https://streamlinehq.com
  </desc>
  <title>stylelint</title>
  <path d="M3.415 0.549 0 3.712 2.242 5.65 0.547 7.483l11.176 15.909h0.114c-2.625 -9.386 -2.55 -9.428 -4.446 -16.12l-0.456 0.263c-0.248 0.143 -0.451 0.026 -0.451 -0.26V4.084C5.98 2.321 5.586 0.958 5.47 0.549zm15.115 0c-0.116 0.41 -0.51 1.772 -1.014 3.535v3.191c0 0.286 -0.203 0.403 -0.45 0.26l-0.457 -0.264c-1.897 6.693 -1.821 6.735 -4.446 16.12 -0.017 0.07 0.06 0.09 0.114 0L23.453 7.484 21.757 5.65 24 3.712 20.585 0.549zm-11.496 0.75c-0.118 0.007 -0.2 0.105 -0.2 0.271v5.127c0 0.242 0.172 0.34 0.38 0.22l3.068 -1.772a0.336 0.336 0 0 1 -0.086 -0.222V3.287c0 -0.067 0.021 -0.129 0.056 -0.182L7.215 1.35a0.333 0.333 0 0 0 -0.18 -0.051zm9.939 0a0.331 0.331 0 0 0 -0.18 0.052l-3.038 1.753a0.33 0.33 0 0 1 0.057 0.183v1.636a0.335 0.335 0 0 1 -0.088 0.223l3.068 1.77c0.21 0.122 0.38 0.023 0.38 -0.218V1.57c0 -0.166 -0.08 -0.264 -0.199 -0.27zm-6.35 1.863c-0.101 0 -0.183 0.056 -0.183 0.125v1.636c0 0.069 0.082 0.125 0.183 0.125h2.761c0.101 0 0.184 -0.056 0.184 -0.125V3.287c0 -0.07 -0.083 -0.125 -0.184 -0.125zm1.294 3.642a0.829 0.829 0 0 0 -0.83 0.83 0.829 0.829 0 0 0 0.83 0.828 0.829 0.829 0 0 0 0.829 -0.829 0.829 0.829 0 0 0 -0.83 -0.829zm-0.01 4.93a0.829 0.829 0 0 0 -0.82 0.829 0.829 0.829 0 0 0 0.83 0.829 0.829 0.829 0 0 0 0.828 -0.83 0.829 0.829 0 0 0 -0.829 -0.828 0.829 0.829 0 0 0 -0.009 0zm0.01 4.93a0.829 0.829 0 0 0 -0.83 0.828 0.829 0.829 0 0 0 0.83 0.83 0.829 0.829 0 0 0 0.829 -0.83 0.829 0.829 0 0 0 -0.83 -0.829z" fill="#7a57db" stroke-width="1"></path>
</svg>